<svg xmlns="http://www.w3.org/2000/svg" id="Layer_1" viewBox="0 0 639 228" transform="matrix(1, 0, 0, 1, 0, 0)"><defs fill="#183347"><style>.cls-1{fill:none;stroke:#183347;stroke-linecap:round;stroke-linejoin:round;stroke-width:8px;}.cls-2{fill:none;}</style></defs><g id="_x38_R46z0"><path class="cls-2" d="M639,228H0V0h639v228ZM58.1,165.433c19.186,19.97,59.804,14.172,68.512-20.349,4.174-16.545,4.399-33.159-.87-49.516-6.758-20.979-23.464-31.915-45.097-28.728-7.576,1.116-14.769,4.818-22.333,7.405,0-.736-.003-2.339,0-3.941.031-13.106.037-26.212.111-39.318.025-4.503-1.861-6.73-6.61-6.591-5.481.16-10.973-.052-16.461-.085-5.419-.032-7.065,1.595-7.072,7.089-.055,41.646-.101,83.292-.137,124.939-.004,4.314-.032,8.631.137,12.94.141,3.597,1.79,5.957,5.799,5.94,5.99-.024,12.003.269,17.955-.208,1.746-.14,3.713-2.165,4.846-3.824.936-1.371.792-3.476,1.219-5.754h0ZM184.997,138.394c-.701-.878-1.09-1.173-1.221-1.556-7.049-20.669-14.158-41.319-21.038-62.043-1.428-4.3-3.441-6.928-8.372-6.754-6.315.223-12.645-.006-18.962.187-6.294.192-7.293,1.802-5.185,7.695.334.935.769,1.834,1.125,2.762,11.91,31.076,23.872,62.132,35.607,93.273.884,2.345.85,5.537.034,7.925-2.852,8.345-7.233,10.97-17.208,11.213-6.984.17-7.952,1.165-7.979,8.206-.004,1.161-.016,2.323.003,3.484.222,13.479-3.589,15.126,15.249,15.192,17.862.062,30.314-7.337,36.571-24.253,5.857-15.836,11.632-31.704,17.354-47.589,8.358-23.204,16.694-46.417,24.913-69.671,2.362-6.683,1.282-8.149-5.525-8.26-6.32-.102-12.643-.016-18.965.008-3.616.014-5.855,1.669-6.807,5.283-1.517,5.757-3.186,11.478-4.922,17.175-4.801,15.748-9.671,31.475-14.672,47.723h0ZM413.46,107.479c-8.309,0-16.298-.313-24.247.109-5.429.288-10.925,1.147-16.182,2.537-21.583,5.708-26.675,20.671-24.077,39.992,1.505,11.19,6.858,20.333,18.243,23.997,15.518,4.994,30.459,4.229,43.703-6.66.8-.658,1.792-1.083,2.826-1.695,1.895,9.157,2.235,9.431,11.099,9.433,3.827,0,7.654.049,11.481.014,5.627-.052,7.281-1.551,7.273-6.978-.03-22.068.043-44.138-.271-66.202-.239-16.777-10.079-29.153-26.298-33.231-18.193-4.574-36.258-2.649-54.186,1.898-4.091,1.038-6.205,3.352-5.798,7.809.301,3.297.187,6.631.247,9.949.147,8.082,1.415,8.906,9.263,6.719,11.386-3.172,22.826-5.945,34.827-3.606,8.829,1.721,12.842,6.741,12.097,15.915h0ZM589.006,107.003c-11.707.516-23.055.211-34.168,1.68-21.196,2.801-30.97,14.709-30.705,35.686.265,20.969,15.656,34.398,36.64,32.309,10.32-1.027,19.721-3.995,27.609-11.189,1.888,6.464,6.13,9.694,12.725,9.691,3.326-.002,6.651.002,9.977-.016,6.034-.034,7.462-1.256,7.442-7.247-.073-22.216-.056-44.436-.493-66.646-.328-16.656-9.454-28.188-25.635-32.503-18.491-4.931-36.871-2.914-55.07,2.021-2.893.784-4.468,2.46-4.283,5.724.206,3.636.006,7.293.036,10.94.07,8.478,1.571,9.49,9.855,7.442,11.116-2.749,22.234-5.498,33.891-3.385,9.113,1.651,13.027,6.578,12.178,15.494h.001ZM250.822,163.002c.504-.093,1.009-.187,1.513-.28,0-5.753.034-11.506-.013-17.258-.027-3.249,1.015-5.853,4.68-5.568,3.384.264,4.504,2.692,4.386,6.042-.251,7.125-.262,14.26-.297,21.391-.007,1.474-.169,3.316.606,4.329.942,1.23,2.869,2.501,4.245,2.378,1.269-.113,3.396-2.053,3.393-3.182-.04-11.744-.383-23.488-.749-35.228-.216-6.932-1.343-13.919-.766-20.773.793-9.423,4.041-18.135,14.367-21.225,16.06-4.805,28.064,4.088,28.249,20.77.191,17.251.125,34.506.176,51.759.005,1.659-.485,3.591.201,4.906.843,1.619,2.524,3.432,4.143,3.782.95.205,2.979-2.067,3.615-3.6.65-1.566.217-3.59.212-5.414-.029-9.456-.281-18.919.071-28.36.068-1.829,2.202-4.713,3.865-5.11,3.237-.774,4.457,2.037,4.694,4.968.093,1.154.03,2.321.032,3.483.019,9.622-.08,19.247.169,28.863.043,1.645,1.203,4.047,2.52,4.659,1.425.662,4.372.287,5.341-.8,1.569-1.76,2.872-4.465,2.893-6.783.308-33.342.395-66.687.508-100.031.037-10.948-.012-21.897-.002-32.845.007-8.484-.758-9.321-9.408-9.527-4.656-.111-9.317-.106-13.973-.029-5.53.091-6.958,1.571-6.975,7.2-.042,13.603-.022,27.207-.06,40.81-.003,1.193-.25,2.386-.443,4.108-1.48-1.119-2.383-1.816-3.301-2.494-20.568-15.171-49.375-8.213-60.446,14.851-7.757,16.16-8.427,33.204-4.953,50.52,1.781,8.878,5.449,16.904,11.505,23.69l.002-.002ZM463.233,93.867c.086,1.907.201,3.528.226,5.151.27,17.073.223,34.158.879,51.217.531,13.777,8.886,23.13,22.454,25.133,6.838,1.009,13.918.784,20.868.542,7.737-.269,8.568-1.464,8.641-9.289.017-1.824.017-3.648.03-5.472.093-13.308-.197-10.998-10.944-11.2-1.158-.022-2.319-.16-3.47-.312-4.779-.631-7.788-3.345-7.834-8.137-.15-15.564-.007-31.13.053-46.696,0-.251.372-.5.871-1.128,5.166,0,10.627-.014,16.088.005,4.123.014,6.089-2.041,6.07-6.113-.02-4.146.011-8.291-.004-12.437-.019-5.591-.989-6.606-6.738-6.689-5.447-.078-10.896-.017-17.078-.017,0-8.215.049-15.478-.015-22.74-.055-6.155-.869-6.989-6.881-7.069-5.154-.068-10.31-.04-15.464.043-7.103.114-7.613.654-7.64,7.801-.027,7.06-.006,14.119-.006,21.072-8.448.902-12.592,5.332-12.433,13.29.003.166.003.332.007.497.149,7.832,4.255,12.015,12.32,12.548h0ZM294.32,146.257h.141c0,8.108-.185,16.224.163,24.317.066,1.54,2.237,2.99,3.436,4.481,1.418-1.49,2.905-2.924,4.206-4.51.327-.398.058-1.284.061-1.946.057-15.223.081-30.447.199-45.67.023-2.99-.513-5.49-4.084-5.457-3.464.032-4.204,2.391-4.16,5.455.112,7.775.037,15.553.037,23.329h.001ZM285.832,156.673h.045c0-4.956.349-9.951-.193-14.847-.185-1.67-2.611-3.092-4.014-4.628-1.305,1.43-3.703,2.832-3.74,4.293-.247,9.739-.173,19.499.295,29.228.074,1.534,2.676,2.948,4.109,4.417,1.166-1.693,3.139-3.297,3.339-5.097.489-4.407.16-8.905.16-13.366h-.001Z" fill="#183347"/><path d="M58.1,165.433c-.428,2.278-.283,4.383-1.219,5.754-1.133,1.659-3.101,3.684-4.846,3.824-5.952.477-11.965.183-17.955.208-4.009.016-5.658-2.344-5.799-5.94-.169-4.309-.141-8.626-.137-12.94.037-41.646.082-83.292.137-124.939.007-5.494,1.653-7.121,7.072-7.089,5.488.032,10.98.245,16.461.085,4.748-.139,6.635,2.088,6.61,6.591-.074,13.106-.08,26.212-.111,39.318-.004,1.603,0,3.205,0,3.941,7.563-2.588,14.756-6.289,22.333-7.405,21.633-3.187,38.339,7.749,45.097,28.728,5.269,16.357,5.044,32.971.87,49.516-8.708,34.521-49.326,40.319-68.512,20.349h0ZM57.438,121.095c.505,5.024.709,9.502,1.448,13.889,1.485,8.819,7.069,14.044,16.283,15.69,8.372,1.496,15.999-1.149,19.291-7.983,6.617-13.738,6.841-27.883-.169-41.569-4.121-8.046-11.752-9.565-20.103-8.533-7.844.97-12.979,5.286-14.779,13.296-1.152,5.129-1.387,10.463-1.971,15.209h0Z" fill="#183347"/><path d="M184.997,138.394c5.001-16.248,9.87-31.975,14.672-47.723,1.737-5.696,3.405-11.417,4.922-17.175.952-3.614,3.191-5.269,6.807-5.283,6.322-.025,12.645-.111,18.965-.008,6.807.11,7.887,1.577,5.525,8.26-8.219,23.254-16.555,46.467-24.913,69.671-5.722,15.886-11.496,31.753-17.354,47.589-6.257,16.916-18.709,24.315-36.571,24.253-18.838-.066-15.028-1.712-15.249-15.192-.019-1.161-.008-2.323-.003-3.484.027-7.041.995-8.035,7.979-8.206,9.975-.243,14.356-2.867,17.208-11.213.816-2.388.85-5.58-.034-7.925-11.735-31.141-23.698-62.197-35.607-93.273-.356-.928-.79-1.827-1.125-2.762-2.108-5.893-1.109-7.502,5.185-7.695,6.317-.193,12.647.036,18.962-.187,4.931-.174,6.944,2.454,8.372,6.754,6.881,20.725,13.99,41.374,21.038,62.043.131.383.52.678,1.221,1.556h0Z" fill="#183347"/><path d="M413.46,107.479c.745-9.175-3.268-14.195-12.097-15.915-12.001-2.339-23.44.434-34.827,3.606-7.847,2.186-9.116,1.363-9.263-6.719-.06-3.318.053-6.653-.247-9.949-.407-4.457,1.707-6.772,5.798-7.809,17.927-4.547,35.993-6.472,54.186-1.898,16.219,4.078,26.059,16.454,26.298,33.231.315,22.064.241,44.135.271,66.202.007,5.427-1.646,6.926-7.273,6.978-3.827.035-7.654-.013-11.481-.014-8.864-.002-9.204-.276-11.099-9.433-1.035.612-2.026,1.038-2.826,1.695-13.244,10.889-28.185,11.654-43.703,6.66-11.384-3.664-16.738-12.807-18.243-23.997-2.598-19.321,2.494-34.284,24.077-39.992,5.257-1.39,10.753-2.249,16.182-2.537,7.949-.422,15.937-.109,24.247-.109h0ZM413.076,127.333c-2.655,0-5.147-.181-7.604.035-6.414.564-12.946.718-19.179,2.138-6.016,1.371-9.091,6.429-8.656,11.776.51,6.272,3.653,9.781,10.071,11.246,17.631,4.024,28.808-6.644,25.367-25.195h0Z" fill="#183347"/><path d="M589.006,107.003c.849-8.916-3.065-13.843-12.178-15.494-11.658-2.112-22.775.636-33.891,3.385-8.284,2.049-9.785,1.036-9.855-7.442-.03-3.647.17-7.305-.036-10.94-.185-3.264,1.39-4.939,4.283-5.724,18.199-4.935,36.58-6.952,55.07-2.021,16.18,4.315,25.307,15.847,25.635,32.503.437,22.21.42,44.43.493,66.646.02,5.991-1.408,7.213-7.442,7.247-3.326.019-6.651.014-9.977.016-6.595.004-10.837-3.226-12.725-9.691-7.888,7.194-17.288,10.161-27.609,11.189-20.984,2.089-36.375-11.341-36.64-32.309-.265-20.977,9.509-32.885,30.705-35.686,11.113-1.469,22.461-1.163,34.168-1.68h-.001ZM577.653,127.402c-.042-.241-.084-.481-.126-.722-5.665.975-11.448,1.531-16.958,3.063-4.167,1.158-6.982,4.418-7.388,9.048-.409,4.669.443,8.942,4.68,11.795,8.286,5.58,25.81,1.326,29.582-7.883,1.698-4.145,1.465-9.38.796-13.929-.133-.905-6.239-.94-9.591-1.366-.326-.041-.662-.006-.994-.006h-.001Z" fill="#183347"/><path d="M250.822,163.002c-6.055-6.786-9.723-14.812-11.505-23.69-3.474-17.316-2.804-34.36,4.953-50.52,11.071-23.064,39.878-30.021,60.446-14.851.918.677,1.822,1.375,3.301,2.494.193-1.722.44-2.915.443-4.108.038-13.603.018-27.207.06-40.81.018-5.629,1.445-7.109,6.975-7.2,4.657-.077,9.318-.082,13.973.029,8.65.206,9.415,1.043,9.408,9.527-.01,10.948.039,21.897.002,32.845-.113,33.344-.2,66.688-.508,100.031-.021,2.318-1.324,5.023-2.893,6.783-.969,1.087-3.917,1.463-5.341.8-1.317-.612-2.477-3.015-2.52-4.659-.25-9.616-.15-19.241-.169-28.863-.002-1.161.061-2.328-.032-3.483-.237-2.931-1.457-5.742-4.694-4.968-1.662.397-3.796,3.281-3.865,5.11-.352,9.441-.1,18.905-.071,28.36.005,1.823.438,3.847-.212,5.414-.636,1.533-2.665,3.805-3.615,3.6-1.619-.35-3.3-2.163-4.143-3.782-.685-1.316-.196-3.248-.201-4.906-.051-17.253.016-34.507-.176-51.759-.185-16.682-12.189-25.575-28.249-20.77-10.326,3.09-13.574,11.802-14.367,21.225-.577,6.854.55,13.841.766,20.773.365,11.741.709,23.485.749,35.228.004,1.129-2.124,3.069-3.393,3.182-1.377.123-3.303-1.148-4.245-2.378-.775-1.013-.613-2.855-.606-4.329.034-7.131.046-14.266.297-21.391.118-3.35-1.003-5.778-4.386-6.042-3.665-.286-4.707,2.318-4.68,5.568.047,5.752.013,11.505.013,17.258-.504.093-1.009.187-1.513.28l-.002.002Z" fill="#183347"/><path d="M463.233,93.867c-8.065-.533-12.171-4.715-12.32-12.548-.003-.166-.003-.332-.007-.497-.159-7.959,3.985-12.389,12.433-13.29,0-6.953-.021-14.013.006-21.072.027-7.148.536-7.687,7.64-7.801,5.154-.083,10.31-.111,15.464-.043,6.012.08,6.826.914,6.881,7.069.065,7.262.015,14.525.015,22.74,6.183,0,11.631-.062,17.078.017,5.749.083,6.718,1.097,6.738,6.689.014,4.146-.016,8.291.004,12.437.019,4.072-1.947,6.128-6.07,6.113-5.461-.019-10.921-.005-16.088-.005-.498.628-.87.877-.871,1.128-.06,15.565-.203,31.132-.053,46.696.046,4.793,3.055,7.507,7.834,8.137,1.151.152,2.312.29,3.47.312,10.747.202,11.037-2.108,10.944,11.2-.013,1.824-.013,3.648-.03,5.472-.073,7.825-.904,9.02-8.641,9.289-6.95.242-14.03.467-20.868-.542-13.568-2.002-21.923-11.356-22.454-25.133-.657-17.058-.61-34.143-.879-51.217-.026-1.623-.14-3.245-.226-5.151h0Z" fill="#183347"/><path d="M294.32,146.257c0-7.777.075-15.554-.037-23.329-.044-3.064.695-5.423,4.16-5.455,3.571-.033,4.107,2.467,4.084,5.457-.119,15.223-.142,30.446-.199,45.67-.002.662.266,1.547-.061,1.946-1.301,1.586-2.788,3.02-4.206,4.51-1.2-1.491-3.37-2.942-3.436-4.481-.347-8.093-.163-16.209-.163-24.317h-.142Z" fill="#183347"/><path d="M285.832,156.673c0,4.461.329,8.959-.16,13.366-.2,1.8-2.173,3.404-3.339,5.097-1.433-1.469-4.035-2.883-4.109-4.417-.468-9.729-.542-19.489-.295-29.228.037-1.462,2.434-2.864,3.74-4.293,1.402,1.536,3.829,2.958,4.014,4.628.542,4.896.193,9.891.193,14.847h-.045.001Z" fill="#183347"/><path class="cls-2" d="M57.438,121.095c.585-4.746.819-10.08,1.971-15.209,1.8-8.01,6.935-12.326,14.779-13.296,8.351-1.032,15.982.487,20.103,8.533,7.009,13.686,6.786,27.831.169,41.569-3.292,6.834-10.918,9.478-19.291,7.983-9.214-1.646-14.798-6.871-16.283-15.69-.739-4.388-.943-8.865-1.448-13.889h0Z" fill="#183347"/><path class="cls-2" d="M413.076,127.333c3.441,18.551-7.736,29.219-25.367,25.195-6.419-1.465-9.562-4.974-10.071-11.246-.435-5.347,2.64-10.405,8.656-11.776,6.233-1.42,12.765-1.574,19.179-2.138,2.457-.216,4.949-.035,7.604-.035h-.001Z" fill="#183347"/><path class="cls-2" d="M577.653,127.402c.331,0,.667-.036.994.006,3.353.425,9.458.461,9.591,1.366.669,4.549.902,9.784-.796,13.929-3.772,9.209-21.295,13.464-29.582,7.883-4.237-2.853-5.089-7.125-4.68-11.795.406-4.63,3.221-7.889,7.388-9.048,5.51-1.532,11.293-2.088,16.958-3.063.042.241.084.481.126.722h0Z" fill="#183347"/><line class="cls-1" x1="281.946" y1="140.404" x2="281.946" y2="171.595" fill="#183347"/><line class="cls-1" x1="298.425" y1="122.29" x2="298.425" y2="171.856" fill="#183347"/></g></svg>